<svg width="427" height="274" viewBox="0 0 427 274" fill="none" xmlns="http://www.w3.org/2000/svg">
<path d="M37.015 138.666C31.2217 138.666 25.9967 137.658 21.34 135.641C16.72 133.624 12.9067 130.746 9.9 127.006C6.93 123.229 5.04167 118.756 4.235 113.586L17.985 111.496C19.1583 116.189 21.56 119.819 25.19 122.386C28.8567 124.953 33.0733 126.236 37.84 126.236C40.6633 126.236 43.3217 125.796 45.815 124.916C48.3083 124.036 50.325 122.753 51.865 121.066C53.4417 119.379 54.23 117.308 54.23 114.851C54.23 113.751 54.0467 112.743 53.68 111.826C53.3133 110.873 52.7633 110.029 52.03 109.296C51.3333 108.563 50.4167 107.903 49.28 107.316C48.18 106.693 46.8967 106.161 45.43 105.721L24.97 99.6711C23.21 99.1578 21.3033 98.4794 19.25 97.6361C17.2333 96.7561 15.3083 95.5644 13.475 94.0611C11.6783 92.5211 10.1933 90.5778 9.02 88.2311C7.88333 85.8478 7.315 82.9144 7.315 79.4311C7.315 74.3344 8.59833 70.0628 11.165 66.6161C13.7683 63.1328 17.2517 60.5294 21.615 58.8061C26.015 57.0828 30.8917 56.2394 36.245 56.2761C41.6717 56.3128 46.5117 57.2478 50.765 59.0811C55.0183 60.8778 58.575 63.4994 61.435 66.9461C64.295 70.3928 66.3117 74.5544 67.485 79.4311L53.24 81.9061C52.6533 79.1194 51.5167 76.7544 49.83 74.8111C48.18 72.8311 46.145 71.3278 43.725 70.3011C41.3417 69.2744 38.7933 68.7244 36.08 68.6511C33.44 68.6144 30.9833 69.0178 28.71 69.8611C26.4733 70.6678 24.6583 71.8411 23.265 73.3811C21.9083 74.9211 21.23 76.7178 21.23 78.7711C21.23 80.7144 21.8167 82.3094 22.99 83.5561C24.1633 84.7661 25.6117 85.7378 27.335 86.4711C29.095 87.1678 30.8733 87.7544 32.67 88.2311L46.86 92.1911C48.8033 92.7044 50.985 93.4011 53.405 94.2811C55.825 95.1611 58.1533 96.3894 60.39 97.9661C62.6267 99.5428 64.46 101.614 65.89 104.181C67.3567 106.748 68.09 110.011 68.09 113.971C68.09 118.078 67.2283 121.689 65.505 124.806C63.8183 127.886 61.5267 130.453 58.63 132.506C55.7333 134.559 52.415 136.099 48.675 137.126C44.9717 138.153 41.085 138.666 37.015 138.666ZM121.08 137.016L121.08 108.416C121.08 106.546 120.952 104.474 120.695 102.201C120.438 99.9278 119.833 97.7461 118.88 95.6561C117.963 93.5294 116.57 91.7878 114.7 90.4311C112.867 89.0744 110.373 88.3961 107.22 88.3961C105.533 88.3961 103.865 88.6711 102.215 89.2211C100.565 89.7711 99.0616 90.7244 97.7049 92.0811C96.3849 93.4011 95.3216 95.2344 94.5149 97.5811C93.7083 99.8911 93.3049 102.861 93.3049 106.491L85.4399 103.136C85.4399 98.0761 86.4116 93.4928 88.3549 89.3861C90.3349 85.2794 93.2316 82.0161 97.0449 79.5961C100.858 77.1394 105.552 75.9111 111.125 75.9111C115.525 75.9111 119.155 76.6444 122.015 78.1111C124.875 79.5778 127.148 81.4478 128.835 83.7211C130.522 85.9944 131.768 88.4144 132.575 90.9811C133.382 93.5478 133.895 95.9861 134.115 98.2961C134.372 100.569 134.5 102.421 134.5 103.851L134.5 137.016L121.08 137.016ZM79.8849 137.016L79.8849 57.8161L91.7099 57.8161L91.7099 99.5061L93.3049 99.5061L93.3049 137.016L79.8849 137.016ZM175.087 138.666C169.147 138.666 163.959 137.328 159.522 134.651C155.086 131.974 151.639 128.289 149.182 123.596C146.762 118.866 145.552 113.439 145.552 107.316C145.552 101.083 146.799 95.6194 149.292 90.9261C151.786 86.2328 155.251 82.5661 159.687 79.9261C164.124 77.2861 169.257 75.9661 175.087 75.9661C181.064 75.9661 186.271 77.3044 190.707 79.9811C195.144 82.6578 198.591 86.3611 201.047 91.0911C203.504 95.7844 204.732 101.193 204.732 107.316C204.732 113.476 203.486 118.921 200.992 123.651C198.536 128.344 195.089 132.029 190.652 134.706C186.216 137.346 181.027 138.666 175.087 138.666ZM175.087 126.236C180.367 126.236 184.291 124.476 186.857 120.956C189.424 117.436 190.707 112.889 190.707 107.316C190.707 101.559 189.406 96.9761 186.802 93.5661C184.199 90.1194 180.294 88.3961 175.087 88.3961C171.531 88.3961 168.597 89.2028 166.287 90.8161C164.014 92.3928 162.327 94.6111 161.227 97.4711C160.127 100.294 159.577 103.576 159.577 107.316C159.577 113.073 160.879 117.674 163.482 121.121C166.122 124.531 169.991 126.236 175.087 126.236ZM216.85 137.016L216.85 77.6161L228.565 77.6161L228.565 92.0811L227.135 90.2111C227.869 88.2311 228.84 86.4344 230.05 84.8211C231.297 83.1711 232.782 81.8144 234.505 80.7511C235.972 79.7611 237.585 78.9911 239.345 78.4411C241.142 77.8544 242.975 77.5061 244.845 77.3961C246.715 77.2494 248.53 77.3228 250.29 77.6161L250.29 89.9911C248.53 89.4778 246.495 89.3128 244.185 89.4961C241.912 89.6794 239.859 90.3211 238.025 91.4211C236.192 92.4111 234.689 93.6761 233.515 95.2161C232.379 96.7561 231.535 98.5161 230.985 100.496C230.435 102.439 230.16 104.548 230.16 106.821L230.16 137.016L216.85 137.016ZM295.601 137.016C291.678 137.749 287.828 138.061 284.051 137.951C280.311 137.878 276.956 137.199 273.986 135.916C271.016 134.596 268.761 132.524 267.221 129.701C265.864 127.134 265.149 124.513 265.076 121.836C265.003 119.159 264.966 116.134 264.966 112.761L264.966 61.1161L278.166 61.1161L278.166 111.991C278.166 114.374 278.184 116.464 278.221 118.261C278.294 120.058 278.679 121.524 279.376 122.661C280.696 124.861 282.804 126.089 285.701 126.346C288.598 126.603 291.898 126.456 295.601 125.906L295.601 137.016ZM254.186 88.0111L254.186 77.6161L295.601 77.6161L295.601 88.0111L254.186 88.0111ZM301.774 137.016L328.614 96.9761L302.544 57.8161L318.769 57.8161L336.809 85.7011L354.684 57.8161L371.019 57.8161L344.949 96.9761L371.679 137.016L355.454 137.016L336.809 108.251L318.109 137.016L301.774 137.016Z" fill="black"/>
<path d="M297.68 150.063L306.38 141.364L358.577 193.562L358.577 145.713L370.931 145.713V214.615H302.03L302.03 202.261L349.878 202.261L297.68 150.063Z" fill="#0085BE"/>
<path d="M167.913 151.445C171.367 179.575 184.467 205.637 204.983 225.19C225.498 244.744 252.158 256.579 280.421 258.679C308.684 260.78 336.801 253.015 359.982 236.709C383.162 220.402 399.971 196.563 407.544 169.253C415.118 141.943 412.988 112.851 401.517 86.9353C390.047 61.0194 369.945 39.8825 344.637 27.1263C319.329 14.37 290.381 10.7836 262.725 16.9781C235.069 23.1726 210.417 38.7646 192.968 61.0977" stroke="black" stroke-width="10"/>
</svg>
